<svg width="214" height="21" viewBox="0 0 214 21" fill="none" xmlns="http://www.w3.org/2000/svg">
<path fill-rule="evenodd" clip-rule="evenodd" d="M21.923 0.617188C22.028 0.790187 22.127 0.967188 22.239 1.13519C22.952 2.19719 23.666 3.25919 24.382 4.31919C24.907 5.09619 25.435 5.86919 25.96 6.64619C26.523 7.47919 27.083 8.31419 27.645 9.14619C27.878 9.49219 28.112 9.83619 28.353 10.1902L26.924 10.9602C25.904 11.5122 24.885 12.0652 23.864 12.6162C23.357 12.8902 22.846 13.1582 22.338 13.4322C21.318 13.9832 20.298 14.5372 19.278 15.0872C18.734 15.3802 18.188 15.6662 17.644 15.9592C16.639 16.5012 15.635 17.0492 14.63 17.5912C14.112 17.8712 13.592 18.1472 13.073 18.4252C12.398 18.7852 11.723 19.1452 11.048 19.5092C10.997 19.5372 10.955 19.5842 10.909 19.6222H10.839C10.659 19.3592 10.481 19.0952 10.299 18.8322L8.496 16.2272L6.438 13.2552C5.862 12.4242 5.284 11.5952 4.71 10.7632C4.045 9.80019 3.384 8.83319 2.718 7.87019C1.955 6.76719 1.19 5.66419 0.423 4.56219C0.288 4.36819 0.141 4.18319 0 3.99419V3.95919L0.742 3.84319C1.226 3.76919 1.71 3.69319 2.194 3.62119C2.617 3.55719 3.041 3.50119 3.464 3.43619C3.947 3.36119 4.429 3.27719 4.913 3.20419C5.409 3.12819 5.906 3.06419 6.402 2.98919C6.914 2.91219 7.425 2.82819 7.938 2.75019C8.422 2.67719 8.908 2.61019 9.392 2.53619C9.966 2.44719 10.538 2.35119 11.112 2.26419C11.602 2.18919 12.094 2.12419 12.584 2.05019C13.17 1.96119 13.754 1.86819 14.339 1.77519C14.76 1.70819 15.181 1.63719 15.603 1.57119C15.93 1.52019 16.257 1.47619 16.584 1.42719L17.868 1.23419L18.898 1.07919L20.15 0.892187C20.572 0.828187 20.994 0.763187 21.415 0.695187C21.528 0.677187 21.638 0.644188 21.75 0.617188H21.924H21.923ZM6.322 9.40819C6.322 10.5332 6.325 11.6582 6.318 12.7842C6.318 12.9532 6.353 13.0172 6.538 13.0142C7.203 13.0042 7.868 13.0042 8.535 13.0142C8.708 13.0162 8.747 12.9582 8.745 12.7952C8.738 12.0882 8.745 11.3802 8.741 10.6722C8.74 10.5402 8.781 10.4932 8.919 10.4862C9.259 10.4702 9.601 10.4522 9.938 10.4022C10.578 10.3072 11.19 10.1222 11.73 9.75119C12.414 9.28119 12.77 8.63519 12.711 7.80019C12.653 6.96319 12.163 6.42419 11.429 6.08419C10.826 5.80619 10.182 5.69719 9.528 5.66219C8.526 5.60919 7.528 5.64519 6.534 5.79819C6.376 5.82219 6.315 5.87519 6.317 6.05019C6.327 7.17019 6.322 8.28919 6.322 9.40819ZM19.548 10.5292C19.425 10.5972 19.336 10.6492 19.245 10.6962C19.008 10.8162 18.778 10.9562 18.531 11.0492C18.014 11.2462 17.469 11.2752 16.925 11.2202C16.141 11.1422 15.673 10.7252 15.519 9.97819C15.4205 9.52255 15.4308 9.05011 15.549 8.59919C15.719 7.96319 16.112 7.52919 16.779 7.43219C17.099 7.38519 17.437 7.42019 17.763 7.45419C18.234 7.50419 18.681 7.63219 19.049 7.96019C19.19 8.08619 19.352 8.18719 19.525 8.31519C19.535 8.24519 19.545 8.20119 19.546 8.15719C19.552 7.85019 19.536 7.54119 19.567 7.23719C19.595 6.95419 19.474 6.77119 19.282 6.59319C18.359 5.73319 17.276 5.41819 16.047 5.66419C14.756 5.92419 13.811 6.64019 13.329 7.89219C12.976 8.80919 12.961 9.75119 13.249 10.6872C13.531 11.6072 14.127 12.2642 15 12.6672C15.4706 12.8781 15.9753 13.0024 16.49 13.0342C17.532 13.1112 18.535 13.0062 19.435 12.4062C19.53 12.3422 19.564 12.2762 19.563 12.1662C19.558 11.6852 19.561 11.2032 19.561 10.7222C19.561 10.6722 19.554 10.6212 19.548 10.5292ZM20.673 5.65319V12.9992C20.743 13.0032 20.806 13.0092 20.867 13.0092C21.521 13.0102 22.175 13.0062 22.829 13.0132C22.984 13.0152 23.039 12.9762 23.039 12.8102C23.034 10.4852 23.034 8.16019 23.039 5.83619C23.039 5.68119 22.991 5.63819 22.842 5.63919C22.176 5.64619 21.511 5.64219 20.845 5.64319C20.789 5.64319 20.733 5.64919 20.673 5.65319ZM21.821 5.22119C22.811 5.22119 23.468 4.26519 23.071 3.39819C22.813 2.83019 22.143 2.50819 21.521 2.65119C20.917 2.79019 20.476 3.27519 20.455 3.82319C20.425 4.62719 21.006 5.22119 21.821 5.22119Z" fill="#666666"/>
<path fill-rule="evenodd" clip-rule="evenodd" d="M8.743 8.06127V7.52127C8.742 7.43027 8.778 7.36927 8.873 7.38127C9.204 7.42527 9.539 7.45227 9.862 7.53127C10.089 7.58627 10.255 7.74827 10.261 8.01727C10.267 8.28427 10.127 8.44827 9.899 8.55727C9.566 8.71727 9.209 8.73627 8.85 8.74727C8.816 8.74727 8.75 8.66427 8.748 8.61727C8.736 8.43227 8.743 8.24727 8.743 8.06127ZM29.42 3.17727H31.676C32.186 3.17727 32.573 3.21527 32.84 3.29327C33.199 3.39927 33.506 3.58727 33.762 3.85727C34.017 4.12727 34.212 4.45827 34.345 4.84927C34.479 5.24127 34.545 5.72327 34.545 6.29727C34.545 6.80127 34.483 7.23627 34.358 7.60127C34.205 8.04627 33.987 8.40727 33.703 8.68327C33.489 8.89227 33.2 9.05527 32.836 9.17127C32.563 9.25827 32.199 9.30127 31.743 9.30127H29.421V3.17627L29.42 3.17727ZM30.655 4.21227V8.26927H31.576C31.921 8.26927 32.17 8.24927 32.323 8.21027C32.523 8.16026 32.689 8.07627 32.821 7.95627C32.953 7.83627 33.061 7.63927 33.144 7.36427C33.228 7.09027 33.269 6.71627 33.269 6.24327C33.269 5.76927 33.228 5.40627 33.144 5.15327C33.0787 4.92919 32.9584 4.72499 32.794 4.55927C32.634 4.41228 32.4363 4.31258 32.223 4.27127C32.05 4.23127 31.713 4.21227 31.21 4.21227H30.655ZM35.28 7.30827L36.48 7.19127C36.553 7.59527 36.7 7.89127 36.92 8.08127C37.141 8.27127 37.44 8.36527 37.815 8.36527C38.212 8.36527 38.512 8.28127 38.713 8.11227C38.915 7.94427 39.016 7.74727 39.016 7.52227C39.0197 7.38765 38.9746 7.25623 38.889 7.15227C38.804 7.05027 38.656 6.96227 38.444 6.88627C38.1178 6.78616 37.7882 6.69711 37.456 6.61927C36.795 6.45527 36.33 6.25327 36.063 6.01327C35.688 5.67627 35.5 5.26527 35.5 4.78127C35.5 4.46927 35.589 4.17727 35.765 3.90527C35.9509 3.6263 36.2169 3.41015 36.528 3.28527C36.86 3.14327 37.262 3.07227 37.731 3.07227C38.499 3.07227 39.076 3.24027 39.464 3.57727C39.852 3.91427 40.056 4.36427 40.075 4.92727L38.841 4.98127C38.788 4.66627 38.674 4.44027 38.501 4.30227C38.327 4.16427 38.067 4.09527 37.719 4.09527C37.36 4.09527 37.079 4.16927 36.877 4.31727C36.8179 4.36003 36.7695 4.41597 36.7357 4.48067C36.7019 4.54537 36.6837 4.61704 36.6825 4.69001C36.6812 4.76298 36.6969 4.83525 36.7284 4.90107C36.76 4.9669 36.8064 5.02449 36.864 5.06927C37.02 5.19927 37.398 5.33627 37.998 5.47927C38.598 5.62027 39.043 5.76727 39.331 5.91927C39.618 6.07127 39.844 6.27927 40.006 6.54227C40.169 6.80527 40.25 7.13027 40.25 7.51727C40.25 7.86827 40.153 8.19727 39.958 8.50327C39.7611 8.81156 39.4726 9.05041 39.133 9.18626C38.777 9.33527 38.333 9.41026 37.803 9.41026C37.029 9.41026 36.436 9.23027 36.022 8.87327C35.607 8.51527 35.36 7.99327 35.279 7.30827M40.976 7.30827L42.176 7.19127C42.249 7.59527 42.396 7.89127 42.616 8.08127C42.838 8.27127 43.136 8.36527 43.511 8.36527C43.909 8.36527 44.208 8.28127 44.41 8.11227C44.611 7.94427 44.712 7.74727 44.712 7.52227C44.7157 7.38765 44.6706 7.25623 44.585 7.15227C44.5 7.05027 44.352 6.96227 44.141 6.88627C43.996 6.83627 43.667 6.74627 43.153 6.61927C42.491 6.45527 42.027 6.25327 41.76 6.01327C41.384 5.67627 41.197 5.26527 41.197 4.78127C41.197 4.46927 41.285 4.17727 41.462 3.90527C41.6479 3.6263 41.9139 3.41015 42.225 3.28527C42.557 3.14327 42.958 3.07227 43.428 3.07227C44.195 3.07227 44.773 3.24027 45.16 3.57727C45.548 3.91427 45.752 4.36427 45.771 4.92727L44.537 4.98127C44.484 4.66627 44.371 4.44027 44.197 4.30227C44.023 4.16427 43.763 4.09527 43.415 4.09527C43.057 4.09527 42.775 4.16927 42.573 4.31727C42.5139 4.36011 42.4656 4.41612 42.4319 4.48086C42.3983 4.5456 42.3801 4.6173 42.379 4.69026C42.3778 4.76323 42.3936 4.83547 42.4252 4.90126C42.4568 4.96704 42.5033 5.02456 42.561 5.06927C42.716 5.19927 43.094 5.33627 43.695 5.47927C44.295 5.62027 44.739 5.76727 45.027 5.91927C45.315 6.07127 45.54 6.27927 45.703 6.54227C45.865 6.80527 45.946 7.13027 45.946 7.51727C45.946 7.86827 45.849 8.19727 45.655 8.50327C45.4579 8.81172 45.169 9.05059 44.829 9.18626C44.473 9.33527 44.029 9.41026 43.499 9.41026C42.726 9.41026 42.132 9.23027 41.718 8.87327C41.304 8.51527 41.057 7.99327 40.976 7.30827ZM30.817 12.4643L31.236 12.5973C31.172 12.8303 31.065 13.0043 30.916 13.1173C30.7506 13.236 30.5504 13.2961 30.347 13.2883C30.2163 13.2922 30.0862 13.2682 29.9655 13.2178C29.8448 13.1675 29.7362 13.0919 29.647 12.9963C29.463 12.8023 29.372 12.5363 29.372 12.1993C29.372 11.8423 29.464 11.5653 29.648 11.3673C29.832 11.1703 30.073 11.0713 30.373 11.0713C30.635 11.0713 30.847 11.1493 31.011 11.3043C31.108 11.3963 31.181 11.5273 31.23 11.6993L30.802 11.8013C30.7814 11.698 30.7255 11.605 30.644 11.5383C30.5606 11.4728 30.457 11.4385 30.351 11.4413C30.278 11.439 30.2053 11.4532 30.1385 11.4828C30.0717 11.5124 30.0124 11.5566 29.965 11.6123C29.867 11.7263 29.817 11.9123 29.817 12.1673C29.817 12.4373 29.866 12.6313 29.963 12.7463C30.009 12.802 30.0672 12.8465 30.1331 12.8763C30.1989 12.9061 30.2707 12.9205 30.343 12.9183C30.452 12.9203 30.5577 12.881 30.639 12.8083C30.7325 12.7148 30.7947 12.5946 30.817 12.4643ZM31.519 12.1933C31.519 11.9753 31.551 11.7913 31.617 11.6433C31.665 11.5333 31.732 11.4363 31.816 11.3493C31.8938 11.2667 31.9878 11.2011 32.092 11.1563C32.226 11.1003 32.38 11.0713 32.554 11.0713C32.869 11.0713 33.121 11.1693 33.31 11.3653C33.5 11.5613 33.594 11.8343 33.594 12.1833C33.594 12.5293 33.5 12.8003 33.313 12.9953C33.125 13.1903 32.873 13.2883 32.56 13.2883C32.241 13.2883 31.988 13.1913 31.8 12.9963C31.613 12.8023 31.519 12.5343 31.519 12.1933ZM31.964 12.1783C31.964 12.4213 32.02 12.6053 32.132 12.7303C32.1848 12.7911 32.2503 12.8395 32.324 12.872C32.3976 12.9045 32.4775 12.9203 32.558 12.9183C32.638 12.9206 32.7176 12.9051 32.7909 12.8729C32.8642 12.8408 32.9295 12.7927 32.982 12.7323C33.092 12.6073 33.148 12.4213 33.148 12.1723C33.148 11.9273 33.094 11.7443 32.987 11.6223C32.9332 11.5625 32.8668 11.5154 32.7926 11.4843C32.7185 11.4532 32.6383 11.4388 32.558 11.4423C32.4773 11.4393 32.3969 11.4542 32.3226 11.4858C32.2483 11.5175 32.1818 11.5651 32.128 11.6253C32.018 11.7473 31.964 11.9323 31.964 12.1783ZM33.926 13.2523V11.1073H34.572L34.96 12.5693L35.344 11.1073H35.992V13.2513H35.591V11.5633L35.166 13.2513H34.75L34.327 11.5633V13.2513H33.926M36.421 13.2523V11.1073H37.115C37.377 11.1073 37.549 11.1173 37.628 11.1393C37.7516 11.1722 37.8602 11.2463 37.936 11.3493C38.0229 11.4704 38.0666 11.6173 38.06 11.7663C38.0642 11.881 38.0402 11.995 37.99 12.0983C37.947 12.1827 37.8842 12.2554 37.807 12.3103C37.7397 12.3584 37.6636 12.3927 37.583 12.4113C37.48 12.4313 37.331 12.4423 37.135 12.4423H36.853V13.2513H36.421V13.2523ZM36.853 11.4713V12.0793H37.09C37.26 12.0793 37.374 12.0683 37.431 12.0453C37.4862 12.0248 37.5337 11.9876 37.5667 11.9388C37.5997 11.89 37.6166 11.8321 37.615 11.7733C37.6178 11.7026 37.5935 11.6336 37.547 11.5803C37.5015 11.5297 37.4401 11.4961 37.373 11.4853C37.2702 11.4729 37.1665 11.4683 37.063 11.4713H36.853ZM38.427 13.2523V11.1263H38.859V12.8903H39.933V13.2523H38.427ZM40.228 11.1083H40.768V13.2523H40.228V11.1083ZM43 13.2523H42.531L42.344 12.7653H41.489L41.312 13.2523H40.854L41.687 11.1083H42.144L43.001 13.2523H43ZM42.206 12.4033L41.911 11.6083L41.621 12.4033H42.206ZM43.235 13.2523V11.1073H43.655L44.531 12.5383V11.1073H44.931V13.2513H44.498L43.636 11.8533V13.2513H43.235M45.87 13.2523V11.4713H45.236V11.1083H46.936V11.4713H46.302V13.2513H45.87" fill="#666666"/>
<path d="M78.936 8.7395H101.936V20.2395H78.936V8.7395Z" fill="#666666"/>
<path d="M87.9233 0.0945401L85.67 5.48364H84.1912L83.0797 1.18303C83.0118 0.91879 82.9585 0.81939 82.7488 0.70909C82.311 0.49984 81.8489 0.34593 81.373 0.25091L81.4058 0.0945401H83.7779C84.0985 0.0936701 84.3719 0.32685 84.4215 0.64364L85.0082 3.76242L86.4627 0.0945401H87.9233ZM93.6979 3.73091C93.6979 2.30788 91.7318 2.22909 91.7451 1.59394C91.7451 1.40121 91.933 1.19515 92.3366 1.14303C92.8083 1.09815 93.2833 1.18193 93.7112 1.38545L93.9536 0.24242C93.5371 0.0850502 93.0959 0.00296 92.6506 0C91.2712 0 90.3027 0.72727 90.2942 1.78061C90.2857 2.55636 90.9876 2.99273 91.5148 3.24848C92.0421 3.50424 92.2421 3.68121 92.2421 3.91758C92.2421 4.28121 91.8094 4.43879 91.4094 4.44485C90.9089 4.45558 90.4142 4.33701 89.973 4.10061L89.7197 5.28242C90.2139 5.47455 90.7397 5.57279 91.27 5.57212C92.7354 5.57212 93.6942 4.84485 93.6942 3.72848L93.6979 3.73091ZM97.3306 5.48727H98.6191L97.5003 0.0945101H96.3112C96.0509 0.0918001 95.8153 0.24851 95.7173 0.4897L93.6251 5.48364H95.0894L95.3803 4.67879H97.1682L97.3306 5.48727ZM95.7815 3.57455L96.5148 1.5503L96.9427 3.57455H95.7815ZM89.9124 0.0945501L88.7633 5.48364H87.367L88.5197 0.0945501H89.9124Z" fill="#666666"/>
<path d="M84.0263 15.3902C84.2276 15.5024 84.454 15.562 84.6845 15.5636C84.9996 15.5636 85.1778 15.4145 85.1778 15.1914C85.1778 14.9684 85.0396 14.8654 84.693 14.7393C84.2408 14.5817 83.9548 14.3405 83.9548 13.9527C83.9548 13.5042 84.3257 13.1696 84.9245 13.1696C85.1484 13.1642 85.3705 13.2098 85.5742 13.303L85.453 13.7066C85.2859 13.6186 85.1 13.5725 84.9111 13.572C84.596 13.572 84.4627 13.7381 84.4627 13.8993C84.4627 14.109 84.6202 14.206 84.9839 14.343C85.4554 14.5248 85.6821 14.7636 85.6821 15.1502C85.6821 15.5902 85.3511 15.966 84.653 15.966C84.3965 15.9691 84.143 15.9109 83.9136 15.7963L84.0263 15.3902Z" fill="white"/>
<path d="M87.6091 14.7185H86.5861V15.5185H87.7311V15.9265H86.0911V13.2085H87.6661V13.6155H86.5751V14.3185H87.6091V14.7185Z" fill="white"/>
<path d="M90.0796 15.8449C89.8546 15.9324 89.6143 15.9736 89.3729 15.9661C88.5087 15.9661 87.9839 15.4255 87.9839 14.5976C87.9839 13.7018 88.6106 13.1649 89.4384 13.1649C89.6639 13.1577 89.8884 13.199 90.0966 13.2861L89.9911 13.6824C89.8225 13.611 89.6409 13.5751 89.4578 13.577C88.9051 13.577 88.5051 13.9249 88.5051 14.5782C88.5051 15.1758 88.853 15.5552 89.4542 15.5552C89.6388 15.5565 89.8221 15.5236 89.9948 15.4582L90.0796 15.8449ZM90.956 13.2085V14.7952C90.956 15.3285 91.1778 15.5746 91.5135 15.5746C91.8772 15.5746 92.0869 15.3321 92.0869 14.7952V13.2085H92.579V14.7624C92.579 15.6024 92.1463 15.9746 91.4881 15.9746C90.8578 15.9746 90.4493 15.623 90.4493 14.7624V13.2085H90.956ZM93.1123 13.2449C93.3606 13.2026 93.612 13.1823 93.8639 13.1843C94.2554 13.1843 94.5172 13.2497 94.7039 13.4024C94.8608 13.5407 94.9468 13.7426 94.9378 13.9515C94.9364 14.2615 94.7359 14.5354 94.4408 14.6303V14.6424C94.6384 14.7152 94.756 14.9043 94.8202 15.1673C94.8772 15.4241 94.9488 15.6775 95.0348 15.9261H94.5257C94.4448 15.7182 94.3839 15.5031 94.3439 15.2837C94.2639 14.9285 94.1378 14.8158 93.859 14.8073H93.6093V15.9261H93.1123V13.2449ZM93.6057 14.4449H93.9002C94.2348 14.4449 94.4408 14.2667 94.4408 13.9964C94.4408 13.7018 94.2348 13.56 93.9123 13.56C93.8095 13.557 93.7067 13.5651 93.6057 13.5843V14.4449Z" fill="white"/>
<path d="M96.8919 14.7185H95.8659V15.5185H97.0129V15.9265H95.3669V13.2085H96.9489V13.6155H95.8579V14.3185H96.8829L96.8919 14.7185Z" fill="white"/>
<path d="M162.578 19.5301H161.984V12.7141H162.578V19.5311V19.5301ZM167.107 12.7131C167.628 12.7051 168.147 12.7852 168.642 12.9501C169.075 13.0941 169.473 13.3261 169.811 13.6321C170.128 13.9321 170.375 14.2981 170.535 14.7041C170.879 15.616 170.879 16.6222 170.535 17.5341C170.372 17.9413 170.121 18.3077 169.801 18.6071C169.463 18.9137 169.065 19.146 168.632 19.2891C168.138 19.4538 167.619 19.534 167.099 19.5261H164.617V12.7091L167.107 12.7131ZM165.213 13.2781V18.9651H167.107C167.553 18.9751 167.997 18.9101 168.422 18.7711C168.778 18.6501 169.105 18.4541 169.38 18.1981C169.64 17.9481 169.84 17.6411 169.965 17.3021C170.228 16.5455 170.228 15.7218 169.965 14.9651C169.84 14.6256 169.64 14.3187 169.38 14.0671C169.105 13.8095 168.778 13.614 168.422 13.4941C167.997 13.3556 167.553 13.2897 167.107 13.2991L165.213 13.2781ZM178.09 12.6351C178.375 12.6351 178.66 12.6671 178.937 12.7321C179.203 12.7951 179.461 12.8891 179.705 13.0121C179.939 13.1321 180.157 13.2791 180.353 13.4531C180.545 13.6233 180.711 13.8199 180.848 14.0371L180.352 14.3681C180.235 14.1893 180.095 14.0269 179.935 13.8851C179.606 13.5929 179.209 13.3879 178.781 13.2891C178.555 13.2353 178.323 13.2084 178.091 13.2091C177.704 13.206 177.32 13.2773 176.96 13.4191C176.62 13.5511 176.311 13.7501 176.05 14.0041C175.788 14.2671 175.581 14.58 175.443 14.9241C175.147 15.6886 175.147 16.5357 175.443 17.3001C175.582 17.6451 175.789 17.9581 176.053 18.2211C176.313 18.4751 176.623 18.6741 176.962 18.8061C177.322 18.9481 177.707 19.0191 178.094 19.0161C178.324 19.0161 178.554 18.9901 178.779 18.9381C179.206 18.8394 179.603 18.636 179.933 18.3461C180.093 18.2041 180.233 18.0401 180.35 17.8591L180.837 18.2151C180.552 18.651 180.156 19.0023 179.689 19.2321C179.449 19.3541 179.194 19.4461 178.931 19.5071C178.19 19.6754 177.416 19.6183 176.709 19.3431C176.295 19.1798 175.918 18.9353 175.6 18.6241C175.284 18.3107 175.035 17.9365 174.868 17.5241C174.514 16.6185 174.514 15.6128 174.868 14.7071C175.035 14.2941 175.284 13.9191 175.6 13.6051C175.918 13.2939 176.295 13.0495 176.709 12.8861C177.149 12.7151 177.616 12.6291 178.088 12.6351H178.09ZM182.868 15.7511C182.993 15.542 183.161 15.3615 183.361 15.2209C183.56 15.0804 183.787 14.9831 184.026 14.9351C184.179 14.9021 184.336 14.8851 184.493 14.8851C184.758 14.8821 185.022 14.9251 185.273 15.0131C185.499 15.0931 185.707 15.2181 185.883 15.3811C186.055 15.5451 186.188 15.7451 186.273 15.9661C186.369 16.2101 186.416 16.4711 186.412 16.7331V19.5421H185.857V16.8911C185.859 16.6794 185.826 16.4688 185.759 16.2681C185.699 16.0919 185.601 15.9313 185.471 15.7981C185.34 15.6674 185.182 15.5671 185.009 15.5041C184.809 15.4326 184.598 15.3977 184.386 15.4011C184.18 15.3993 183.976 15.4363 183.784 15.5101C183.601 15.5805 183.435 15.6873 183.296 15.824C183.156 15.9607 183.046 16.1244 182.972 16.3051C182.891 16.5001 182.85 16.7091 182.852 16.9201V19.5301H182.298V12.5181H182.853L182.868 15.7511ZM190.051 14.8851C190.343 14.8821 190.632 14.9411 190.901 15.0581C191.156 15.1701 191.387 15.3341 191.576 15.5391C191.772 15.7551 191.925 16.0061 192.026 16.2791C192.139 16.5811 192.197 16.9001 192.197 17.2221V17.4501H188.344C188.358 17.6961 188.419 17.9371 188.522 18.1601C188.615 18.3601 188.748 18.5401 188.912 18.6891C189.07 18.8331 189.256 18.9451 189.459 19.0181C189.67 19.0941 189.894 19.1321 190.119 19.1311C190.415 19.1361 190.709 19.0761 190.979 18.9561C191.235 18.8381 191.468 18.6761 191.668 18.4781L191.966 18.8681C191.83 19.0051 191.681 19.1281 191.52 19.2341C191.235 19.419 190.914 19.5407 190.579 19.5911C190.415 19.6135 190.251 19.6246 190.086 19.6241C189.769 19.6272 189.454 19.5681 189.16 19.4501C188.886 19.3405 188.637 19.1754 188.43 18.9651C188.219 18.7492 188.056 18.4921 187.95 18.2101C187.83 17.9001 187.771 17.5691 187.775 17.2361C187.771 16.9103 187.831 16.5868 187.949 16.2831C188.057 16.0041 188.219 15.7491 188.426 15.5331C188.631 15.3231 188.876 15.1571 189.146 15.0441C189.432 14.927 189.739 14.8692 190.049 14.8741L190.051 14.8841V14.8851ZM190.051 15.3771C189.839 15.3723 189.628 15.4095 189.431 15.4868C189.233 15.564 189.053 15.6797 188.901 15.8271C188.752 15.9724 188.63 16.1435 188.543 16.3321C188.448 16.5351 188.388 16.7521 188.366 16.9751H191.633C191.616 16.7508 191.561 16.5311 191.471 16.3251C191.389 16.1368 191.273 15.9655 191.128 15.8201C190.984 15.6779 190.815 15.5655 190.628 15.4895C190.441 15.4134 190.24 15.3752 190.039 15.3771H190.051ZM195.597 14.8851C195.921 14.8821 196.243 14.9441 196.543 15.0681C196.828 15.1851 197.082 15.3661 197.286 15.5961L196.926 15.9701C196.752 15.7951 196.548 15.6538 196.323 15.5531C196.089 15.452 195.836 15.4016 195.581 15.4051C195.345 15.402 195.112 15.4473 194.895 15.5381C194.678 15.6289 194.482 15.7634 194.319 15.9331C194.157 16.1011 194.031 16.2997 193.947 16.5171C193.768 16.9929 193.768 17.5173 193.947 17.9931C194.111 18.4331 194.449 18.7851 194.882 18.9671C195.103 19.0611 195.341 19.1071 195.582 19.1061C195.84 19.1087 196.096 19.0555 196.333 18.9501C196.558 18.8491 196.763 18.7091 196.939 18.5371L197.286 18.9171C197.079 19.1461 196.824 19.3271 196.54 19.4451C196.24 19.5681 195.919 19.6311 195.595 19.6281C195.27 19.6319 194.948 19.5707 194.648 19.4481C194.37 19.3349 194.117 19.1663 193.907 18.9524C193.696 18.7385 193.531 18.4839 193.422 18.2041C193.191 17.5994 193.191 16.9308 193.422 16.3261C193.53 16.0456 193.695 15.7903 193.906 15.5759C194.117 15.3614 194.37 15.1924 194.649 15.0791C194.945 14.9491 195.265 14.8801 195.588 14.8751L195.598 14.8851H195.597ZM199.152 16.8911H199.896L201.825 14.9591H202.525L200.345 17.1211L202.565 19.5401H201.86L199.896 17.3971H199.152V19.5401H198.587V12.5281H199.142L199.152 16.8911ZM169.248 10.2901V7.36813C169.248 6.26613 168.545 5.52313 167.413 5.51413C167.09 5.49319 166.768 5.55916 166.48 5.70515C166.191 5.85114 165.948 6.0718 165.774 6.34413C165.615 6.08009 165.389 5.86364 165.118 5.71757C164.847 5.5715 164.541 5.50122 164.234 5.51413C163.966 5.50108 163.699 5.55814 163.46 5.67967C163.221 5.8012 163.017 5.983 162.87 6.20713V5.62413H161.855V10.2871H162.88V7.70413C162.88 6.89413 163.328 6.46513 164.021 6.46513C164.715 6.46513 165.036 6.90313 165.036 7.69513V10.2891H166.061V7.70413C166.061 6.89413 166.528 6.46513 167.202 6.46513C167.876 6.46513 168.227 6.90313 168.227 7.69513V10.2891H169.247L169.248 10.2901ZM184.409 5.62713H182.752V4.21313H181.738V5.62713H180.791V6.55413H181.738V8.68113C181.738 9.76413 182.156 10.4091 183.356 10.4091C183.805 10.4101 184.244 10.2851 184.625 10.0491L184.332 9.17913C184.059 9.34132 183.75 9.4318 183.434 9.44213C182.928 9.44213 182.76 9.13113 182.76 8.66313V6.55413H184.418L184.41 5.62813L184.409 5.62713ZM193.064 5.51013C192.816 5.50284 192.572 5.56245 192.355 5.68266C192.139 5.80287 191.959 5.97922 191.835 6.19313V5.62713H190.83V10.2901H191.845V7.67613C191.845 6.89613 192.176 6.47613 192.84 6.47613C193.058 6.47313 193.273 6.51213 193.475 6.59313L193.787 5.63613C193.555 5.55334 193.31 5.51073 193.064 5.51013ZM179.984 5.99913C179.409 5.6576 178.748 5.48855 178.08 5.51213C176.9 5.51213 176.132 6.07713 176.132 7.00413C176.132 7.76513 176.697 8.23313 177.742 8.37913L178.218 8.44713C178.774 8.52513 179.038 8.67113 179.038 8.93413C179.038 9.29413 178.668 9.49913 177.975 9.49913C177.415 9.51678 176.866 9.34519 176.417 9.01213L175.939 9.80213C176.53 10.2161 177.239 10.4281 177.959 10.4091C179.305 10.4091 180.087 9.77413 180.087 8.88713C180.087 8.06713 179.471 7.63913 178.458 7.49313L177.981 7.42413C177.542 7.36613 177.19 7.27813 177.19 6.96713C177.19 6.62613 177.521 6.41913 178.078 6.41913C178.588 6.42713 179.088 6.56413 179.531 6.81913L179.983 5.99913H179.984ZM207.166 5.51213C206.918 5.50466 206.673 5.56418 206.457 5.6844C206.24 5.80462 206.06 5.98107 205.936 6.19513V5.62713H204.932V10.2901H205.947V7.67613C205.947 6.89613 206.277 6.47613 206.942 6.47613C207.159 6.47313 207.375 6.51213 207.577 6.59313L207.889 5.63613C207.657 5.55334 207.412 5.51073 207.166 5.51013V5.51213ZM194.092 7.96013C194.092 9.37413 195.078 10.4091 196.58 10.4091C197.189 10.4389 197.787 10.2399 198.257 9.85113L197.77 9.03113C197.416 9.29772 196.986 9.44261 196.543 9.44413C195.733 9.44413 195.138 8.84813 195.138 7.95213C195.138 7.05613 195.734 6.47013 196.543 6.46013C196.984 6.46538 197.411 6.61267 197.762 6.88013L198.249 6.06013C197.779 5.67135 197.181 5.47232 196.572 5.50213C195.07 5.50213 194.084 6.53613 194.084 7.95013L194.092 7.96013ZM203.594 7.96013V5.62413H202.581V6.19113C202.408 5.9679 202.184 5.78933 201.928 5.67033C201.672 5.55134 201.391 5.49537 201.109 5.50713C199.802 5.50713 198.771 6.53113 198.771 7.95513C198.771 9.37913 199.796 10.4041 201.109 10.4041C201.391 10.4159 201.672 10.3599 201.928 10.2409C202.184 10.1219 202.408 9.94335 202.581 9.72013V10.2851H203.596L203.594 7.96113V7.96013ZM199.819 7.96013C199.819 7.14013 200.355 6.46813 201.233 6.46813C202.073 6.46813 202.638 7.11313 202.638 7.96013C202.638 8.80713 202.073 9.45213 201.233 9.45213C200.355 9.45213 199.819 8.77813 199.819 7.96013ZM187.582 5.51013C186.218 5.51013 185.26 6.50513 185.26 7.95813C185.26 9.44013 186.255 10.4071 187.65 10.4071C188.346 10.4313 189.027 10.1982 189.563 9.75213L189.066 9.00013C188.679 9.31013 188.199 9.48213 187.702 9.48713C187.048 9.48713 186.454 9.18513 186.308 8.34613H189.771C189.781 8.21913 189.791 8.09313 189.791 7.95613C189.791 6.50313 188.883 5.50813 187.576 5.50813L187.582 5.51013ZM187.562 6.41713C188.217 6.41713 188.636 6.82713 188.742 7.54913H186.312C186.42 6.87513 186.829 6.41713 187.552 6.41713H187.562ZM213.019 7.95813V3.75513H212.002V6.19313C211.829 5.96995 211.604 5.79148 211.348 5.67265C211.092 5.55383 210.811 5.4981 210.529 5.51013C209.222 5.51013 208.192 6.53413 208.192 7.95813C208.192 9.38213 209.216 10.4071 210.529 10.4071C210.811 10.419 211.092 10.3632 211.348 10.2442C211.605 10.1252 211.829 9.94649 212.002 9.72313V10.2881H213.017V7.95813H213.019ZM209.244 7.95613C209.244 7.13613 209.779 6.46413 210.658 6.46413C211.498 6.46413 212.062 7.10913 212.062 7.95613C212.062 8.80413 211.498 9.44813 210.658 9.44813C209.779 9.44813 209.244 8.77413 209.244 7.95613ZM174.978 7.95613V5.61913H173.945V6.18613C173.772 5.9629 173.548 5.78433 173.292 5.66533C173.036 5.54634 172.755 5.49037 172.473 5.50213C171.166 5.50213 170.135 6.52713 170.135 7.95013C170.135 9.37413 171.16 10.3991 172.473 10.3991C172.755 10.4109 173.036 10.3549 173.292 10.2359C173.548 10.1169 173.772 9.93835 173.945 9.71513V10.2801H174.96L174.978 7.95613ZM171.203 7.95613C171.203 7.13613 171.738 6.46413 172.617 6.46413C173.457 6.46413 174.021 7.10913 174.021 7.95613C174.021 8.80413 173.457 9.44813 172.617 9.44813C171.727 9.44413 171.191 8.77813 171.191 7.95813L171.203 7.95613Z" fill="#666666"/>
<path fill-rule="evenodd" clip-rule="evenodd" d="M142.33 2.11816H148.558V13.1962H142.33V2.11816Z" fill="#707070"/>
<path fill-rule="evenodd" clip-rule="evenodd" d="M142.734 7.65814C142.734 6.58884 142.979 5.53384 143.45 4.57393C143.922 3.61401 144.606 2.77465 145.452 2.12014C142.534 -0.149863 138.342 0.180137 135.825 2.88014C134.611 4.1758 133.936 5.88449 133.936 7.65964C133.936 9.43479 134.611 11.1435 135.825 12.4391C138.343 15.1381 142.534 15.4691 145.452 13.1991C144.606 12.5444 143.921 11.7047 143.45 10.7445C142.979 9.78417 142.734 8.72877 142.734 7.65914V7.65814Z" fill="#404040"/>
<path fill-rule="evenodd" clip-rule="evenodd" d="M156.97 7.65817C156.967 8.98479 156.589 10.2836 155.88 11.4048C155.171 12.526 154.159 13.4239 152.962 13.9952C151.759 14.573 150.42 14.8045 149.093 14.6635C147.767 14.5226 146.506 14.0148 145.452 13.1972C146.297 12.542 146.982 11.7023 147.453 10.7422C147.925 9.78201 148.17 8.72681 148.172 7.65717C148.17 6.5877 147.924 5.5327 147.453 4.57273C146.982 3.61275 146.297 2.7732 145.452 2.11817C146.506 1.30035 147.767 0.792466 149.094 0.65151C150.42 0.510553 151.76 0.7421 152.963 1.32017C154.16 1.89163 155.171 2.78982 155.88 3.9112C156.589 5.03258 156.967 6.33148 156.97 7.65817Z" fill="#ABABAB"/>
</svg>
