<svg width="89" height="40" viewBox="0 0 89 40" fill="none" xmlns="http://www.w3.org/2000/svg">
<path fill-rule="evenodd" clip-rule="evenodd" d="M87.3407 27.5299C87.3319 26.9236 86.9411 26.5672 86.4353 26.5672C85.8582 26.5672 85.4499 26.9505 85.3433 27.5299H87.3407ZM86.4616 25.7116C87.7577 25.7116 88.468 26.665 88.468 27.8683C88.468 28.011 88.4502 28.1624 88.4324 28.3051H85.3166C85.3876 29.0982 85.9913 29.5081 86.6747 29.5081C87.1363 29.5081 87.6069 29.3032 87.9709 29.0091L88.4147 29.8201C87.9531 30.23 87.2429 30.4708 86.5949 30.4708C85.0944 30.4708 84.1535 29.3836 84.1535 28.0911C84.1535 26.6919 85.1034 25.7116 86.4616 25.7116ZM76.9843 25.8185H78.0583V29.4011H79.47V25.8185H80.544V29.4011H81.9554V25.8185H83.0297V29.4011H83.6689V31.4332H82.6569V30.3638H76.9843V25.8185ZM73.591 29.5082C74.3277 29.5082 74.9404 28.9378 74.9404 28.0912C74.9404 27.2535 74.3277 26.6741 73.591 26.6741C72.8542 26.6741 72.2505 27.2535 72.2505 28.0912C72.2505 28.9378 72.8542 29.5082 73.591 29.5082ZM73.5822 25.7116C74.9668 25.7116 76.0766 26.7009 76.0766 28.0911C76.0766 29.4903 74.9668 30.4708 73.5909 30.4708C72.215 30.4708 71.1052 29.4903 71.1052 28.0911C71.1052 26.7009 72.215 25.7116 73.5822 25.7116ZM68.1663 29.517C68.7877 29.517 69.3026 29.0091 69.3026 28.109C69.3026 27.2445 68.841 26.6831 68.184 26.6831C67.5894 26.6831 67.0388 27.1109 67.0388 28.1178C67.0388 28.822 67.4295 29.517 68.1663 29.517ZM65.947 25.8186H66.9767V26.1569C66.9767 26.3264 66.9589 26.4781 66.9589 26.4781H66.9767C67.2696 25.9879 67.82 25.7116 68.4327 25.7116C69.6577 25.7116 70.4388 26.6831 70.4388 28.0911C70.4388 29.535 69.5599 30.4708 68.3704 30.4708C67.8555 30.4708 67.3849 30.239 67.0655 29.8289H67.0477C67.0477 29.8289 67.0745 29.9896 67.0745 30.2212V32.1461H65.947V25.8186ZM60.6175 25.8185H64.7453V30.3638H63.6178V26.7809H61.7448V30.3638H60.6175V25.8185ZM55.7871 25.069H56.6482V24.0353H55.7871V25.069ZM56.3289 27.5299C56.3201 26.9236 55.9293 26.5672 55.4235 26.5672C54.8463 26.5672 54.4381 26.9505 54.3315 27.5299H56.3289ZM54.1543 25.069H55.0244V24.0353H54.1543V25.069ZM55.4502 25.7116C56.7461 25.7116 57.4564 26.665 57.4564 27.8683C57.4564 28.011 57.4386 28.1624 57.4208 28.3051H54.305C54.376 29.0982 54.9797 29.5081 55.6631 29.5081C56.1247 29.5081 56.5953 29.3032 56.9593 29.0091L57.4031 29.8201C56.9415 30.23 56.2313 30.4708 55.5833 30.4708C54.083 30.4708 53.1419 29.3836 53.1419 28.0911C53.1419 26.6919 54.0918 25.7116 55.4502 25.7116ZM50.8681 25.7116C51.4805 25.7116 52.173 25.9165 52.6081 26.389L52.102 27.1643C51.818 26.879 51.3742 26.674 50.9304 26.674C50.0959 26.674 49.5542 27.307 49.5542 28.0823C49.5542 28.8488 50.0959 29.5081 50.9657 29.5081C51.4453 29.5081 51.9601 29.2585 52.2974 28.929L52.7324 29.7312C52.3061 30.1855 51.5959 30.4708 50.8681 30.4708C49.3679 30.4708 48.4092 29.4102 48.4092 28.0911C48.4092 26.7989 49.3679 25.7116 50.8681 25.7116ZM45.6398 29.3745C46.2257 29.3745 46.5542 28.9912 46.5542 28.4565C46.5542 27.9308 46.2167 27.5473 45.6398 27.5473H44.4148V29.3745H45.6398ZM45.5245 26.621C46.0213 26.621 46.3055 26.2646 46.3055 25.81C46.3055 25.3554 46.0304 25.0259 45.5065 25.0259H44.4148V26.621H45.5245ZM43.2694 24.0352H45.5154C46.6607 24.0352 47.4683 24.6237 47.4683 25.6663C47.4683 26.2545 47.1843 26.7626 46.705 27.021V27.0389C47.3972 27.2438 47.7257 27.8855 47.7257 28.5272C47.7257 29.7929 46.7138 30.3632 45.551 30.3632H43.2694V24.0352Z" fill="#2D3540"/>
<path fill-rule="evenodd" clip-rule="evenodd" d="M37.8274 39.8675C38.2359 40.2308 38.7796 39.7793 38.4236 39.3281C34.416 34.2478 30.7093 33.2807 27.0127 32.463C22.4913 31.4628 20.1652 28.9084 18.5444 26.1037C18.2219 25.5457 18.0772 25.6442 18.0481 26.3614C18.0128 27.2386 18.0728 28.3995 18.2685 29.5413C18.0862 29.5498 17.9027 29.5475 17.7181 29.5475C11.2495 29.5475 6.00548 24.283 6.00548 17.7885C6.00548 11.294 11.2495 6.02926 17.7181 6.02926C24.1869 6.02926 29.4309 11.294 29.4309 17.7885C29.4309 18.2506 29.4085 18.7073 29.3568 19.1554C28.5011 19.0006 26.8181 18.983 25.6367 19.0856C25.1927 19.1242 25.2552 19.3322 25.5909 19.3929C29.4629 20.0956 32.1231 22.5044 32.7311 26.876C32.745 26.9765 32.8761 27.0065 32.9278 26.9196C34.5213 24.2504 35.4364 21.1266 35.4364 17.7885C35.4364 7.96424 27.5036 0 17.7181 0C7.93257 0 0 7.96424 0 17.7885C0 27.6128 7.93257 35.5778 17.7181 35.5778C20.3145 35.5778 22.8898 35.071 26.6695 35.071C30.065 35.071 33.7495 36.2399 37.8274 39.8675ZM28.5993 30.6374C28.3674 30.945 27.9916 31.1148 27.5413 31.1148C27.0991 31.1148 26.6483 30.9507 26.3355 30.6765C25.6186 30.0477 25.4083 29.0278 25.8763 28.4487C26.0591 28.2223 26.3561 28.0977 26.7122 28.0977C27.1449 28.0977 27.5982 28.2804 27.9882 28.6118C28.7764 29.2809 29.0164 30.0764 28.5993 30.6374ZM31.2497 28.0154C30.981 28.0154 30.6432 27.6994 30.2452 27.076C29.8524 26.4606 29.7088 25.7543 29.9034 25.3974C30.0318 25.1612 30.3014 25.0586 30.6409 25.1875C31.2984 25.4369 31.5566 26.4474 31.6255 26.9132C31.7414 27.6926 31.4961 28.0154 31.2497 28.0154ZM49.8695 14.2239C49.72 14.0432 49.8479 13.7696 50.0819 13.7696H53.0655C53.2076 13.3449 53.2879 12.8911 53.2879 12.42C53.2879 10.2627 51.6885 8.40294 49.4932 8.40294C47.2981 8.40294 45.6987 10.2627 45.6987 12.42C45.6987 14.5775 47.2981 16.4109 49.4932 16.4109C50.1584 16.4109 50.7677 16.2405 51.2954 15.9459L49.8695 14.2239ZM57.7486 18.8562C57.9034 19.028 57.7762 19.3054 57.5427 19.3054H54.2868C54.1545 19.3054 54.0286 19.2462 53.9439 19.1438L53.3922 18.4773C52.2681 19.2092 50.93 19.6362 49.4933 19.6362C45.5302 19.6362 42.3057 16.3989 42.3057 12.4199C42.3057 8.44085 45.5302 5.20383 49.4933 5.20383C53.4566 5.20383 56.6811 8.44085 56.6811 12.4199C56.6811 13.8542 56.2602 15.1912 55.5386 16.3157L57.7486 18.8562ZM85.1682 5.53598C84.9731 5.53598 84.8148 5.69467 84.8148 5.89083V18.9493C84.8148 19.1452 84.9731 19.3041 85.1682 19.3041H87.8254C88.0205 19.3041 88.1788 19.1452 88.1788 18.9493V5.89083C88.1788 5.69467 88.0205 5.53598 87.8254 5.53598H85.1682ZM80.381 5.53598C80.2256 5.53598 80.0884 5.63703 80.043 5.78538L77.6907 13.502L75.1049 5.7766C75.057 5.6329 74.9218 5.53598 74.7697 5.53598H72.6951C72.543 5.53598 72.4078 5.6329 72.3597 5.7766L69.7741 13.502L67.4217 5.78538C67.3762 5.63703 67.239 5.53598 67.0835 5.53598H64.1105C63.997 5.53598 63.8904 5.59051 63.8237 5.68226C63.7573 5.77401 63.7393 5.89212 63.7753 5.99937L68.142 19.0648C68.1902 19.2085 68.325 19.3054 68.4772 19.3054H70.8367C70.9889 19.3054 71.124 19.2085 71.1722 19.0648L73.7323 11.4319L76.2926 19.0648C76.3408 19.2085 76.4759 19.3054 76.6278 19.3054H78.9873C79.1395 19.3054 79.2746 19.2085 79.3228 19.0648L83.6892 5.99937C83.7253 5.89212 83.7072 5.77401 83.6408 5.68226C83.5744 5.59051 83.4676 5.53598 83.354 5.53598H80.381ZM62.6499 18.9493C62.6499 19.1452 62.4916 19.3041 62.2962 19.3041H59.6391C59.4439 19.3041 59.2856 19.1452 59.2856 18.9493V5.89083C59.2856 5.69467 59.4439 5.53598 59.6391 5.53598H62.2962C62.4916 5.53598 62.6499 5.69467 62.6499 5.89083V18.9493Z" fill="#FF8C00"/>
</svg>
