<svg width="40" height="24" viewBox="0 0 40 24" fill="none" xmlns="http://www.w3.org/2000/svg">
<path d="M10.3153 2H18.3643C19.4878 2 20.1867 2.90708 19.9245 4.02364L16.1772 19.9593C15.9127 21.072 14.7878 21.9799 13.6634 21.9799H5.61526C4.49326 21.9799 3.79288 21.072 4.05498 19.9593L7.80393 4.02364C8.06603 2.90708 9.19038 2 10.3153 2Z" fill="#E21836"/>
<path d="M17.6945 2H26.9506C28.074 2 27.5674 2.90708 27.3032 4.02364L23.5564 19.9593C23.2935 21.072 23.3755 21.9799 22.2498 21.9799H12.9936C11.8679 21.9799 11.1713 21.072 11.4357 19.9593L15.1823 4.02364C15.4483 2.90708 16.5703 2 17.6945 2Z" fill="#00447C"/>
<path d="M26.5835 2H34.6324C35.7576 2 36.4564 2.90708 36.1921 4.02364L32.4453 19.9593C32.1809 21.072 31.0552 21.9799 29.9302 21.9799H21.885C20.7592 21.9799 20.061 21.072 20.3247 19.9593L24.0721 4.02364C24.3342 2.90708 25.4577 2 26.5835 2Z" fill="#007B84"/>
<path d="M12.4173 7.10699C11.5895 7.11535 11.3451 7.10699 11.267 7.08873C11.237 7.23 10.6784 9.78199 10.6769 9.78413C10.5566 10.3004 10.4691 10.6685 10.1719 10.9061C10.0032 11.0443 9.80622 11.1109 9.57786 11.1109C9.21079 11.1109 8.99695 10.9304 8.96104 10.588L8.95418 10.4705C8.95418 10.4705 9.066 9.77888 9.066 9.77499C9.066 9.77499 9.65221 7.44938 9.75717 7.14197C9.76267 7.12448 9.76424 7.11535 9.76561 7.10699C8.62458 7.1169 8.42231 7.10699 8.40838 7.08873C8.40073 7.1138 8.37248 7.25798 8.37248 7.25798L7.77391 9.87915L7.72251 10.1014L7.62305 10.8286C7.62305 11.0443 7.66581 11.2203 7.75096 11.3692C8.02366 11.8412 8.80154 11.9119 9.24159 11.9119C9.80857 11.9119 10.3404 11.7926 10.6998 11.5748C11.3237 11.2097 11.4869 10.6389 11.6325 10.1318L11.7 9.87157C11.7 9.87157 12.3039 7.45619 12.4065 7.14197C12.4104 7.12448 12.412 7.11535 12.4173 7.10699ZM14.4719 9.05551C14.3263 9.05551 14.0603 9.09049 13.8213 9.20649C13.7346 9.2506 13.6526 9.30152 13.5661 9.35223L13.6442 9.073L13.6014 9.02597C13.0946 9.1276 12.9812 9.1412 12.5131 9.20649L12.4739 9.23234C12.4196 9.67869 12.3713 10.0143 12.1698 10.8916C12.0931 11.215 12.0134 11.5414 11.9336 11.864L11.9552 11.905C12.4349 11.8799 12.5804 11.8799 12.9973 11.8867L13.0311 11.8504C13.084 11.5817 13.0909 11.5187 13.2082 10.9744C13.2634 10.7164 13.3783 10.1493 13.435 9.94743C13.5392 9.89963 13.642 9.8526 13.7401 9.8526C13.9737 9.8526 13.9453 10.0545 13.9363 10.135C13.9263 10.27 13.8411 10.7111 13.7538 11.0898L13.6956 11.3343C13.6549 11.5148 13.6104 11.6903 13.5698 11.8692L13.5875 11.905C14.0603 11.8799 14.2045 11.8799 14.6082 11.8867L14.6557 11.8504C14.7287 11.4307 14.7501 11.3184 14.8795 10.7072L14.9447 10.4264C15.0712 9.87689 15.1348 9.59824 15.039 9.37128C14.9378 9.11691 14.6949 9.05551 14.4719 9.05551ZM16.7671 9.63087C16.5158 9.67867 16.3555 9.71054 16.1962 9.73114C16.0383 9.7562 15.8843 9.77894 15.6414 9.81236L15.6222 9.82966L15.6045 9.84345C15.5792 10.0226 15.5615 10.1775 15.528 10.3596C15.4995 10.5479 15.4558 10.7618 15.3846 11.0692C15.3294 11.3045 15.301 11.3865 15.2696 11.4693C15.239 11.5521 15.2053 11.6325 15.1433 11.864L15.1578 11.8854L15.1699 11.905C15.3969 11.8943 15.5454 11.8867 15.6981 11.8854C15.8505 11.8799 16.0084 11.8854 16.2529 11.8867L16.2743 11.8694L16.2972 11.8504C16.3325 11.6417 16.3378 11.5855 16.3594 11.4837C16.3808 11.3745 16.4177 11.2233 16.5081 10.8195C16.5509 10.6299 16.5986 10.4408 16.6429 10.2472C16.689 10.0545 16.7373 9.86463 16.7832 9.67498L16.7763 9.65205L16.7671 9.63087ZM16.7725 8.85511C16.5441 8.72161 16.1433 8.76397 15.8735 8.94838C15.6046 9.1291 15.574 9.3856 15.8015 9.52084C16.026 9.65065 16.4283 9.61198 16.6958 9.42602C16.9641 9.24141 16.9977 8.98724 16.7725 8.85511ZM18.1535 11.9468C18.6155 11.9468 19.0891 11.8207 19.4456 11.4464C19.7199 11.1429 19.8456 10.6913 19.8892 10.5054C20.031 9.88898 19.9206 9.6012 19.7819 9.42592C19.5712 9.15873 19.1988 9.07304 18.8125 9.07304C18.5802 9.07304 18.027 9.09577 17.5948 9.49043C17.2844 9.77511 17.141 10.1614 17.0545 10.5318C16.9672 10.9092 16.8667 11.5885 17.4975 11.8413C17.6921 11.9241 17.9726 11.9468 18.1535 11.9468ZM18.1174 10.56C18.224 10.0932 18.3497 9.70146 18.6707 9.70146C18.9222 9.70146 18.9404 9.99294 18.8286 10.4613C18.8086 10.5652 18.7168 10.9517 18.5926 11.1163C18.5059 11.2377 18.4033 11.3114 18.2899 11.3114C18.2561 11.3114 18.0554 11.3114 18.0523 11.0162C18.0507 10.8705 18.0807 10.7216 18.1174 10.56ZM21.0441 11.8868L21.0802 11.8505C21.1314 11.5817 21.1399 11.5186 21.2533 10.9745C21.31 10.7164 21.4273 10.1494 21.4824 9.94749C21.5868 9.89949 21.6878 9.85247 21.7891 9.85247C22.0212 9.85247 21.9929 10.0544 21.9837 10.1348C21.9753 10.2701 21.8901 10.711 21.8012 11.0897L21.7461 11.3342C21.7039 11.5149 21.658 11.6901 21.6174 11.8693L21.6351 11.9051C22.1094 11.88 22.2481 11.88 22.6543 11.8868L22.7033 11.8505C22.7745 11.4305 22.7937 11.3182 22.9272 10.7073L22.9907 10.4263C23.1178 9.87676 23.1822 9.5983 23.088 9.37133C22.9839 9.11697 22.7394 9.05557 22.5195 9.05557C22.3737 9.05557 22.1063 9.09035 21.8687 9.20655C21.7838 9.25066 21.6986 9.30138 21.6151 9.35229L21.6878 9.07306L21.6488 9.02584C21.1422 9.12766 21.0265 9.14126 20.559 9.20655L20.5231 9.2324C20.4664 9.67875 20.4203 10.0141 20.2188 10.8917C20.1421 11.215 20.0624 11.5415 19.9828 11.8641L20.0042 11.9051C20.4846 11.88 20.628 11.88 21.0441 11.8868ZM24.5295 11.905C24.5593 11.7608 24.7365 10.9062 24.7381 10.9062C24.7381 10.9062 24.8889 10.2791 24.8981 10.2564C24.8981 10.2564 24.9456 10.1911 24.9931 10.1652H25.0629C25.7219 10.1652 26.4661 10.1652 27.0493 9.74025C27.4462 9.44877 27.7176 9.01835 27.8386 8.49525C27.87 8.367 27.8931 8.21446 27.8931 8.06192C27.8931 7.86157 27.8525 7.66337 27.7352 7.5085C27.4378 7.09635 26.8455 7.08877 26.1618 7.08566C26.1596 7.08566 25.8247 7.08877 25.8247 7.08877C24.9496 7.09946 24.5986 7.09635 24.4544 7.07886C24.4422 7.14201 24.4193 7.25433 24.4193 7.25433C24.4193 7.25433 24.1057 8.69345 24.1057 8.69579C24.1057 8.69579 23.3555 11.7555 23.3202 11.8997C24.0844 11.8906 24.3977 11.8906 24.5295 11.905ZM25.1104 9.3485C25.1104 9.3485 25.4437 7.91229 25.4422 7.91773L25.453 7.84409L25.4577 7.78793L25.5909 7.80153C25.5909 7.80153 26.2783 7.86002 26.2944 7.86157C26.5657 7.96553 26.6776 8.2335 26.5995 8.58327C26.5283 8.90293 26.3189 9.17167 26.05 9.30148C25.8285 9.41146 25.5571 9.42059 25.2776 9.42059H25.0967L25.1104 9.3485ZM27.1858 10.5866C27.0977 10.9585 26.9965 11.6378 27.6241 11.88C27.8242 11.9643 28.0035 11.9894 28.1857 11.9802C28.3782 11.9699 28.5565 11.8743 28.7217 11.7367C28.7068 11.7933 28.6919 11.8498 28.677 11.9066L28.7054 11.9429C29.1569 11.9241 29.2969 11.9241 29.786 11.9278L29.8304 11.8943C29.9018 11.4785 29.9691 11.0747 30.1547 10.2792C30.2451 9.89809 30.3354 9.52073 30.4282 9.14122L30.4136 9.09944C29.9087 9.19213 29.7737 9.21195 29.2879 9.28016L29.251 9.30989C29.2461 9.34856 29.241 9.38568 29.2363 9.42279C29.1608 9.30192 29.0513 9.19874 28.8824 9.13442C28.6664 9.05028 28.1591 9.15871 27.7229 9.55201C27.4165 9.8328 27.2693 10.2176 27.1858 10.5866ZM28.2464 10.6093C28.3545 10.1509 28.4786 9.76304 28.8004 9.76304C29.0038 9.76304 29.111 9.94901 29.0892 10.2661C29.0719 10.3452 29.0533 10.4286 29.0311 10.5228C28.9989 10.659 28.964 10.7941 28.9301 10.9293C28.8955 11.0218 28.8553 11.1091 28.8112 11.1672C28.7284 11.2834 28.5314 11.3555 28.418 11.3555C28.3859 11.3555 28.1873 11.3555 28.1804 11.0656C28.1789 10.9212 28.2089 10.7725 28.2464 10.6093ZM33.7848 9.09573L33.7458 9.05162C33.2461 9.15189 33.1557 9.16782 32.6966 9.22923L32.6628 9.26265C32.6613 9.26809 32.6599 9.27645 32.6575 9.28403L32.656 9.27645C32.3142 10.0574 32.3242 9.88894 32.046 10.5038C32.0445 10.4758 32.0445 10.4583 32.0429 10.4286L31.9732 9.09573L31.9295 9.05162C31.4061 9.15189 31.3937 9.16782 30.9103 9.22923L30.8726 9.26265C30.8673 9.27859 30.8673 9.29608 30.8642 9.31512L30.8673 9.32192C30.9278 9.62778 30.9132 9.55957 30.9739 10.0423C31.0021 10.2791 31.0398 10.5174 31.068 10.7513C31.1157 11.1429 31.1424 11.3356 31.2006 11.9332C30.8742 12.4668 30.7969 12.6687 30.4826 13.137L30.4848 13.1416L30.2635 13.4883C30.2382 13.5248 30.2152 13.5499 30.183 13.5606C30.1477 13.5779 30.1018 13.581 30.038 13.581H29.9154L29.7332 14.1814L30.3584 14.1921C30.7255 14.1906 30.9562 14.0206 31.0804 13.792L31.4735 13.1247H31.4673L31.5087 13.0777C31.7731 12.5138 33.7848 9.09573 33.7848 9.09573ZM27.1858 16.9817H26.9205L27.9022 13.7655H28.2279L28.3313 13.4342L28.3413 13.8026C28.3291 14.0304 28.51 14.2323 28.9852 14.1988H29.5347L29.7238 13.5795H29.517C29.3982 13.5795 29.343 13.5498 29.3499 13.4861L29.3399 13.1112H28.3223V13.1132C27.9933 13.12 27.0108 13.1445 26.8118 13.1969C26.5711 13.2583 26.3174 13.4391 26.3174 13.4391L26.4171 13.1073H25.4652L25.2668 13.7655L24.272 17.0308H24.0789L23.8896 17.6457H25.7856L25.722 17.8507H26.6562L26.7182 17.6457H26.9803L27.1858 16.9817ZM26.4079 14.419C26.2554 14.4608 25.9717 14.5875 25.9717 14.5875L26.224 13.7655H26.9803L26.7979 14.3644C26.7979 14.3644 26.5642 14.378 26.4079 14.419ZM26.4224 15.5933C26.4224 15.5933 26.1848 15.6228 26.0284 15.6578C25.8744 15.704 25.5856 15.8498 25.5856 15.8498L25.8462 14.9944H26.6064L26.4224 15.5933ZM25.9986 16.9893H25.24L25.4599 16.2674H26.2162L25.9986 16.9893ZM27.8256 14.9944H28.9192L28.762 15.4984H27.654L27.4876 16.0495H28.4572L27.723 17.0734C27.6716 17.1486 27.6255 17.1752 27.5743 17.1964C27.5229 17.2222 27.4554 17.2526 27.3774 17.2526H27.1084L26.9236 17.8561H27.6271C27.9928 17.8561 28.2088 17.6913 28.3683 17.4751L28.8717 16.7926L28.9798 17.4855C29.0028 17.6154 29.0969 17.6913 29.1607 17.7209C29.2311 17.7558 29.3039 17.8159 29.4067 17.8248C29.517 17.8295 29.5966 17.8332 29.6496 17.8332H29.9953L30.2028 17.1577H30.0665C29.9882 17.1577 29.8534 17.1447 29.8305 17.1204C29.8075 17.0909 29.8075 17.0454 29.7952 16.9762L29.6855 16.2817H29.2364L29.4334 16.0495H30.5393L30.7094 15.4984H29.6855L29.845 14.9944H30.8658L31.0551 14.3728H28.0118L27.8256 14.9944ZM18.5895 17.1296L18.8447 16.2886H19.8937L20.0854 15.6631H19.0354L19.1957 15.1454H20.2218L20.4119 14.5397H17.8446L17.6584 15.1454H18.2416L18.0861 15.6631H17.5012L17.3074 16.2993H17.8905L17.5503 17.412C17.5044 17.5593 17.5719 17.6154 17.6146 17.6838C17.6584 17.7505 17.7027 17.7946 17.8024 17.8196C17.9052 17.8424 17.9756 17.856 18.0714 17.856H19.254L19.4647 17.163L18.9405 17.2344C18.8392 17.2344 18.5589 17.2223 18.5895 17.1296ZM18.7098 13.1036L18.444 13.5794C18.3871 13.6834 18.3359 13.7479 18.2898 13.7777C18.2492 13.8027 18.1687 13.8132 18.0522 13.8132H17.9135L17.7281 14.422H18.1887C18.4102 14.422 18.5803 14.3416 18.6615 14.3013C18.7489 14.2551 18.7718 14.2815 18.8393 14.217L18.9949 14.0835H20.4333L20.6242 13.4496H19.5713L19.7551 13.1036H18.7098ZM20.8334 17.1418C20.8089 17.1069 20.8266 17.0453 20.864 16.917L21.2572 15.6281H22.6558C22.8596 15.6252 23.0068 15.6228 23.1025 15.616C23.2053 15.6054 23.3172 15.569 23.439 15.5037C23.5647 15.4353 23.6291 15.3632 23.6834 15.2805C23.7441 15.1979 23.8414 15.0172 23.9249 14.7385L24.4191 13.1074L22.9677 13.1157C22.9677 13.1157 22.5208 13.181 22.3241 13.2531C22.1255 13.3336 21.8418 13.5582 21.8418 13.5582L21.9729 13.1111H21.0763L19.8211 17.2343C19.7766 17.3945 19.7467 17.5107 19.7399 17.5804C19.7375 17.6556 19.8356 17.73 19.8992 17.7862C19.9743 17.8424 20.0854 17.8332 20.1919 17.8424C20.3039 17.8507 20.4632 17.856 20.6831 17.856H21.3722L21.5836 17.1486L20.9668 17.2064C20.9009 17.2064 20.8532 17.1714 20.8334 17.1418ZM21.5109 14.7575H22.9799L22.8865 15.0475C22.8734 15.0543 22.842 15.0331 22.6925 15.0506H21.4204L21.5109 14.7575ZM21.8051 13.7852H23.2865L23.18 14.1344C23.18 14.1344 22.4818 14.1276 22.37 14.148C21.8779 14.2323 21.5905 14.4927 21.5905 14.4927L21.8051 13.7852ZM22.9194 16.0183C22.9072 16.0617 22.888 16.0881 22.8611 16.1079C22.8313 16.127 22.7831 16.1338 22.7111 16.1338H22.5017L22.5141 15.7807H21.6434L21.6081 17.5068C21.6067 17.6314 21.6189 17.7035 21.7109 17.7612C21.8029 17.8333 22.0864 17.8424 22.468 17.8424H23.0136L23.2105 17.1963L22.7356 17.2221L22.5776 17.2313C22.5561 17.2222 22.5355 17.2138 22.5125 17.1911C22.4925 17.1714 22.4588 17.1835 22.4642 17.0589L22.468 16.6165L22.9661 16.5961C23.2351 16.5961 23.35 16.5094 23.4481 16.4268C23.5417 16.3477 23.5723 16.2568 23.6076 16.1338L23.6912 15.742H23.0067L22.9194 16.0183Z" fill="#FEFEFE"/>
</svg>
